<svg width="15" height="11" viewBox="0 0 15 11" fill="none" xmlns="http://www.w3.org/2000/svg">
<path d="M13.9473 2.11731C14.2526 3.18592 14.2526 5.47581 14.2526 5.47581C14.2526 5.47581 14.2526 7.74025 13.9473 8.8343C13.7946 9.44494 13.3112 9.90292 12.726 10.0556C11.632 10.3354 7.30663 10.3354 7.30663 10.3354C7.30663 10.3354 2.95585 10.3354 1.8618 10.0556C1.2766 9.90292 0.793185 9.44494 0.640526 8.8343C0.335208 7.74025 0.335208 5.47581 0.335208 5.47581C0.335208 5.47581 0.335208 3.18592 0.640526 2.11731C0.793185 1.50667 1.2766 1.02325 1.8618 0.870595C2.95585 0.565277 7.30663 0.565277 7.30663 0.565277C7.30663 0.565277 11.632 0.565277 12.726 0.870595C13.3112 1.02325 13.7946 1.50667 13.9473 2.11731ZM5.88182 7.5367L9.49474 5.47581L5.88182 3.41491V7.5367Z" fill="white"/>
</svg>
